<?xml version="1.0" standalone="no"?>
<!DOCTYPE svg PUBLIC "-//W3C//DTD SVG 20010904//EN"
 "http://www.w3.org/TR/2001/REC-SVG-20010904/DTD/svg10.dtd">
<svg version="1.0" xmlns="http://www.w3.org/2000/svg"
 width="1280.000000pt" height="1216.000000pt" viewBox="0 0 1280.000000 1216.000000"
 preserveAspectRatio="xMidYMid meet">
    <g transform="translate(0.000000,1216.000000) scale(0.100000,-0.100000)"
    fill="gray" stroke="none">
        <path d="M8335 12149 c-22 -4 -82 -15 -133 -24 -462 -78 -879 -407 -1096 -866
        -229 -483 -222 -1030 19 -1514 63 -127 186 -306 254 -369 32 -31 41 -56 18
        -56 -7 0 -268 68 -580 150 -312 83 -580 150 -595 150 -25 0 -1858 -493 -1867
        -502 -3 -2 -169 -368 -370 -814 -325 -720 -383 -841 -525 -1096 -88 -158 -175
        -313 -194 -345 -19 -32 -31 -61 -28 -65 15 -15 656 -157 666 -148 6 5 299 355
        651 779 352 423 648 773 657 776 21 8 478 -102 496 -119 10 -10 -24 -183 -183
        -917 -163 -756 -555 -2574 -570 -2645 -5 -25 -2081 -1984 -2102 -1984 -8 0
        -511 369 -1118 819 l-1105 820 -302 -149 c-167 -82 -304 -155 -305 -162 -2 -7
        46 -105 105 -218 l108 -205 1028 -1342 c565 -739 1032 -1343 1037 -1343 6 0
        893 362 1972 804 l1962 803 1004 262 c553 144 1014 261 1024 259 16 -2 119
        -255 568 -1388 301 -762 551 -1391 556 -1397 5 -8 115 -26 288 -48 154 -20
        292 -40 307 -45 24 -8 29 -6 33 13 11 48 115 769 115 799 0 49 -508 3350 -517
        3359 -5 4 -530 99 -1168 210 -638 111 -1165 207 -1172 213 -8 8 112 338 484
        1326 272 723 500 1321 507 1328 10 10 236 -76 1137 -434 696 -276 1129 -442
        1136 -437 7 4 415 548 908 1208 l896 1199 162 88 c89 48 165 95 169 105 10 23
        119 565 115 569 -10 10 -501 234 -508 232 -4 -2 -510 -415 -1124 -918 -614
        -503 -1122 -916 -1130 -918 -13 -3 -1387 907 -1399 927 -9 14 4 20 96 37 299
        55 570 203 789 430 485 503 605 1278 299 1920 -81 169 -178 303 -319 444 -229
        229 -487 367 -774 415 -51 9 -114 20 -140 25 -57 12 -185 11 -242 -1z"/>
    </g>
</svg>
